<svg xmlns="http://www.w3.org/2000/svg" viewBox="0 0 24 48" width="24px" height="48px">
    <path d="M0 0h24v24H0V0z" fill="none"/>
    <path d="M11.99 2C6.47 2 2 6.48 2 12s4.47 10 9.99 10C17.52 22 22 17.52 22 12S17.52 2 11.99 2zm6.93 6h-2.95c-.32-1.25-.78-2.45-1.38-3.56 1.84.63 3.37 1.91 4.33 3.56zM12 4.04c.83 1.2 1.48 2.53 1.91 3.96h-3.82c.43-1.43 1.08-2.76 1.91-3.96zM4.26 14C4.1 13.36 4 12.69 4 12s.1-1.36.26-2h3.38c-.08.66-.14 1.32-.14 2s.06 1.34.14 2H4.26zm.82 2h2.95c.32 1.25.78 2.45 1.38 3.56-1.84-.63-3.37-1.9-4.33-3.56zm2.95-8H5.08c.96-1.66 2.49-2.93 4.33-3.56C8.81 5.55 8.35 6.75 8.03 8zM12 19.96c-.83-1.2-1.48-2.53-1.91-3.96h3.82c-.43 1.43-1.08 2.76-1.91 3.96zM14.34 14H9.66c-.09-.66-.16-1.32-.16-2s.07-1.35.16-2h4.68c.09.65.16 1.32.16 2s-.07 1.34-.16 2zm.25 5.56c.6-1.11 1.06-2.31 1.38-3.56h2.95c-.96 1.65-2.49 2.93-4.33 3.56zM16.36 14c.08-.66.14-1.32.14-2s-.06-1.34-.14-2h3.38c.16.64.26 1.31.26 2s-.1 1.36-.26 2h-3.38z" fill="#000000"/>
    <g transform="translate(2,26)" fill="black" style="fill-rule:evenodd;clip-rule:evenodd;stroke-linejoin:round;stroke-miterlimit:2;">
        <g>
            <circle cx="10" cy="10" r="10"/>
            <path d="M9.99,0c-5.52,0 -9.99,4.48 -9.99,10c0,5.52 4.47,10 9.99,10c5.53,0 10.01,-4.48 10.01,-10c0,-5.52 -4.48,-10 -10.01,-10Zm6.93,6l-2.95,0c-0.32,-1.25 -0.78,-2.45 -1.38,-3.56c1.84,0.63 3.37,1.91 4.33,3.56Zm-6.92,-3.96c0.83,1.2 1.48,2.53 1.91,3.96l-3.82,0c0.43,-1.43 1.08,-2.76 1.91,-3.96Zm-7.74,9.96c-0.16,-0.64 -0.26,-1.31 -0.26,-2c-0,-0.69 0.1,-1.36 0.26,-2l3.38,0c-0.08,0.66 -0.14,1.32 -0.14,2c-0,0.68 0.06,1.34 0.14,2l-3.38,0Zm0.82,2l2.95,0c0.32,1.25 0.78,2.45 1.38,3.56c-1.84,-0.63 -3.37,-1.9 -4.33,-3.56Zm2.95,-8l-2.95,0c0.96,-1.66 2.49,-2.93 4.33,-3.56c-0.6,1.11 -1.06,2.31 -1.38,3.56Zm3.97,11.96c-0.83,-1.2 -1.48,-2.53 -1.91,-3.96l3.82,0c-0.43,1.43 -1.08,2.76 -1.91,3.96Zm2.34,-5.96l-4.68,0c-0.09,-0.66 -0.16,-1.32 -0.16,-2c-0,-0.68 0.07,-1.35 0.16,-2l4.68,0c0.09,0.65 0.16,1.32 0.16,2c-0,0.68 -0.07,1.34 -0.16,2Zm0.25,5.56c0.6,-1.11 1.06,-2.31 1.38,-3.56l2.95,-0c-0.96,1.65 -2.49,2.93 -4.33,3.56Zm1.77,-5.56c0.08,-0.66 0.14,-1.32 0.14,-2c-0,-0.68 -0.06,-1.34 -0.14,-2l3.38,-0c0.16,0.64 0.26,1.31 0.26,2c-0,0.69 -0.1,1.36 -0.26,2l-3.38,-0Z" style="fill:#fff;fill-rule:nonzero;"/>
        </g>
    </g>
</svg> 
